<svg width="24" height="24" viewBox="0 0 24 24" fill="none" xmlns="http://www.w3.org/2000/svg">
<g clip-path="url(#clip0_101_66)">
<path d="M23.8454 8.22436C23.7281 8.10912 23.5642 8.05448 23.4012 8.0763H17.0343V5.26301C17.0343 2.48266 14.7804 0.22876 12.0001 0.22876C9.21971 0.22876 6.96582 2.48266 6.96582 5.26301V8.0763H0.598861C0.421164 8.0763 0.243523 8.0763 0.154646 8.22436C0.0352739 8.33908 -0.0201042 8.50516 0.00659291 8.66857L2.22761 20.8101C2.53789 22.5038 4.00034 23.7431 5.72199 23.7714H18.278C20.0046 23.7289 21.464 22.4798 21.7724 20.7805L23.9934 8.66857C24.0201 8.50516 23.9648 8.33908 23.8454 8.22436ZM8.1503 5.26301C8.1503 3.13688 9.87388 1.4133 12 1.4133C14.1261 1.4133 15.8497 3.13688 15.8497 5.26301V8.0763H8.1503V5.26301ZM20.5879 20.6324C20.3884 21.7547 19.4179 22.5759 18.278 22.5869H5.72199C4.58212 22.5759 3.61161 21.7548 3.41215 20.6324L1.30959 9.26084H22.6904L20.5879 20.6324Z" fill="black"/>
<path d="M16.4419 15.0354C16.769 15.0354 17.0341 14.7703 17.0341 14.4432V12.6664C17.0341 12.3393 16.769 12.0741 16.4419 12.0741C16.1148 12.0741 15.8496 12.3393 15.8496 12.6664V14.4432C15.8496 14.7703 16.1148 15.0354 16.4419 15.0354Z" fill="black"/>
<path d="M7.55809 15.0354C7.8852 15.0354 8.15036 14.7703 8.15036 14.4432V12.6664C8.15036 12.3393 7.8852 12.0741 7.55809 12.0741C7.23098 12.0741 6.96582 12.3393 6.96582 12.6664V14.4432C6.96582 14.7703 7.23098 15.0354 7.55809 15.0354Z" fill="black"/>
</g>
<defs>
<clipPath id="clip0_101_66">
<rect width="24" height="24" fill="white"/>
</clipPath>
</defs>
</svg>
