<svg width="55" height="38" viewBox="0 0 55 38" fill="none" xmlns="http://www.w3.org/2000/svg">
<path d="M11.6147 0.97754H38.5409M11.6147 36.9776H38.976M26.5846 30.8641H34.7499M28.6977 22.936H36.863M27.9403 14.9382H36.1056M26.5846 7.29145H34.7499M43.7813 3.92455L46.7061 3.92455M43.1849 34.0311H46.7061M17.4241 36.9632C18.6106 37.0582 19.7943 36.6627 20.9041 35.8006C22.0138 34.9384 23.0269 33.6274 23.8824 31.946C24.7379 30.2647 25.4183 28.2478 25.8826 26.0163C26.347 23.7848 26.5857 21.3848 26.5846 18.9602C26.5835 16.5357 26.3425 14.1366 25.8761 11.9069C25.4097 9.67722 24.7275 7.66292 23.8704 5.9849C23.0133 4.30688 21.9991 2.99972 20.8885 2.14187C19.7779 1.28401 18.5939 0.893147 17.4075 0.992728M31.6776 36.9632C32.8641 37.0582 34.0477 36.6627 35.1575 35.8006C36.2673 34.9384 37.2803 33.6274 38.1359 31.946C38.9914 30.2647 39.6717 28.2478 40.1361 26.0163C40.6004 23.7848 40.8392 21.3848 40.8381 18.9602C40.837 16.5357 40.596 14.1366 40.1295 11.9069C39.6631 9.67722 38.9809 7.66292 38.1238 5.9849C37.2668 4.30688 36.2525 2.99972 35.1419 2.14187C34.0313 1.28401 32.8473 0.893147 31.6609 0.992728M38.1955 36.9632C39.382 37.0582 40.5656 36.6627 41.6754 35.8006C42.7852 34.9384 43.7983 33.6274 44.6538 31.946C45.5093 30.2647 46.1896 28.2478 46.654 26.0163C47.1183 23.7848 47.3571 21.3848 47.356 18.9602C47.3549 16.5357 47.1139 14.1366 46.6474 11.9069C46.181 9.67722 45.4988 7.66292 44.6418 5.9849C43.7847 4.30688 42.7704 2.99972 41.6598 2.14187C40.5493 1.28401 39.3652 0.893147 38.1788 0.992728M46.0592 34.0195C47.0515 34.0989 48.0414 33.7682 48.9695 33.0472C49.8976 32.3262 50.7449 31.2298 51.4603 29.8237C52.1758 28.4175 52.7448 26.7308 53.1331 24.8646C53.5215 22.9984 53.7211 20.9912 53.7202 18.9636C53.7193 16.9359 53.5177 14.9295 53.1277 13.0648C52.7376 11.2001 52.1671 9.51557 51.4503 8.11223C50.7335 6.7089 49.8853 5.61571 48.9565 4.89829C48.0277 4.18086 47.0375 3.85398 46.0453 3.93726M19.3504 18.9773C19.3504 28.9182 15.4037 36.977 10.5353 36.977C5.66686 36.977 1.72021 28.9182 1.72021 18.9773C1.72021 9.03629 5.66686 0.97754 10.5353 0.97754C15.4037 0.97754 19.3504 9.03629 19.3504 18.9773ZM15.2677 18.9781C15.2677 25.2382 13.1489 30.3131 10.5353 30.3131C7.92163 30.3131 5.80286 25.2382 5.80286 18.9781C5.80286 12.7179 7.92163 7.64307 10.5353 7.64307C13.1489 7.64307 15.2677 12.7179 15.2677 18.9781Z" stroke="black" stroke-width="1.5"/>
</svg>
