<svg width="54" height="52" viewBox="0 0 54 52" fill="none" xmlns="http://www.w3.org/2000/svg">
<path d="M9.8972 1H1V9.79243M9.8972 51H1V42.2076M44.1028 1H53V9.79243M44.1028 51H53V42.2076M40.76 41.9985C39.6776 39.3366 37.8208 37.0518 35.4244 35.4328C33.0279 33.8139 30.1995 32.9335 27.2968 32.9031C24.394 32.8727 21.5474 33.6936 19.1168 35.262C16.6861 36.8304 14.7807 39.0759 13.6415 41.7145M36.79 19.3278C36.79 24.594 32.4701 28.863 27.1412 28.863C21.8123 28.863 17.4924 24.594 17.4924 19.3278C17.4924 14.0617 21.8123 9.79266 27.1412 9.79266C32.4701 9.79266 36.79 14.0617 36.79 19.3278Z" stroke="black" stroke-width="1.5"/>
</svg>
