<svg width="53" height="57" viewBox="0 0 53 57" fill="none" xmlns="http://www.w3.org/2000/svg">
<path d="M22.9618 4.84539V1.33545H9.99285V4.84539M22.9618 4.84539H30.2948C30.8399 4.84539 31.2819 5.29875 31.2819 5.85798V8.92646C31.2819 9.48569 30.8399 9.93905 30.2948 9.93905M22.9618 4.84539H9.99285M30.2948 9.93905H29.6787M30.2948 9.93905H50.2066C51.6729 9.93905 51.6729 10.8382 51.6729 11.4399C51.6729 12.2581 51.6729 32.5979 51.6729 42.6656C51.6729 43.6763 51.0473 43.7285 50.7345 43.6282H48.8577C48.0132 43.6282 47.8802 44.7914 47.9193 45.373V50.2418C47.9193 51.1563 47.0982 51.2544 46.5313 51.2544H31.2819M29.6787 9.93905V50.2418M29.6787 9.93905H3.27588M29.6787 50.2418H30.2948C30.8399 50.2418 31.2819 50.6952 31.2819 51.2544M29.6787 50.2418H3.27588M31.2819 51.2544V54.3229C31.2819 54.8821 30.8399 55.3355 30.2948 55.3355H2.65993C2.11478 55.3355 1.67285 54.8821 1.67285 54.3229V51.2544C1.67285 50.6952 2.11478 50.2418 2.65992 50.2418H3.27588M3.27588 50.2418V9.93905M3.27588 9.93905H2.65993C2.11478 9.93905 1.67285 9.48569 1.67285 8.92646V5.85798C1.67285 5.29875 2.11478 4.84539 2.65992 4.84539H9.99285M8.0144 13.1245V16.9149M11.416 13.1245V16.9149M15.0349 13.1245V16.9149M18.1726 13.1245V16.9149M21.6149 13.1245V16.9149M25.6267 13.1245V16.9149M8.0144 42.9473V46.7377M11.416 42.9473V46.7377M14.9408 42.9473V46.7377M18.1726 42.9473V46.7377M21.6149 42.9473V46.7377M25.6267 42.9473V46.7377M33.7928 42.9473V46.7377M37.1945 42.9473V46.7377M40.484 42.9473V46.7377M43.6218 42.9473V46.7377M33.7928 12.9042V16.6946M37.1945 12.9042V16.6946M40.484 12.9042V16.6946M43.6218 12.9042V16.6946M47.4417 12.9042V16.6946" stroke="black" stroke-width="1.5"/>
</svg>
