<svg width="56" height="52" viewBox="0 0 56 52" fill="none" xmlns="http://www.w3.org/2000/svg">
<path d="M12.2874 11.8957H3.21045C2.10588 11.8957 1.21045 12.7911 1.21045 13.8957V36.3736C1.21045 37.4782 2.10588 38.3736 3.21045 38.3736H8.13356M44.1335 11.8957H53.2104C54.315 11.8957 55.2104 12.7911 55.2104 13.8957V36.3736C55.2104 37.4782 54.315 38.3736 53.2104 38.3736H48.0105M48.9795 11.8957V20.0153C48.9795 21.1199 48.0841 22.0153 46.9795 22.0153H9.44127C8.3367 22.0153 7.44126 21.1199 7.44126 20.0153V11.8957M5.33381 32.1356H50.3598M41.0559 11.8029H30.7393L25.2882 5.98422L20.9184 10.3143M20.9184 10.3143L22.7204 12.2087M20.9184 10.3143L17.8099 7.29231L15.1069 10.3143M12.4258 1.12744H43.995V15.3613H12.4258V1.12744ZM8.2165 32.1356H48.2042V50.1274C48.2042 50.6797 47.7565 51.1274 47.2042 51.1274H9.2165C8.66422 51.1274 8.2165 50.6797 8.2165 50.1274V32.1356ZM11.5949 32.1356H44.8258V45.9686C44.8258 46.5209 44.3781 46.9686 43.8258 46.9686H12.5949C12.0426 46.9686 11.5949 46.5209 11.5949 45.9686V32.1356ZM47.6144 26.2556C47.6144 27.0932 46.9362 27.7722 46.0996 27.7722C45.263 27.7722 44.5848 27.0932 44.5848 26.2556C44.5848 25.418 45.263 24.739 46.0996 24.739C46.9362 24.739 47.6144 25.418 47.6144 26.2556ZM35.8752 6.76042C35.8752 7.85237 34.9911 8.73756 33.9004 8.73756C32.8098 8.73756 31.9257 7.85237 31.9257 6.76042C31.9257 5.66848 32.8098 4.78328 33.9004 4.78328C34.9911 4.78328 35.8752 5.66848 35.8752 6.76042ZM41.0939 26.2555C41.0939 26.6756 40.7537 27.0161 40.3341 27.0161C39.9145 27.0161 39.5744 26.6756 39.5744 26.2555C39.5744 25.8354 39.9145 25.4948 40.3341 25.4948C40.7537 25.4948 41.0939 25.8354 41.0939 26.2555Z" stroke="black" stroke-width="1.5"/>
</svg>
