<svg width="56" height="56" viewBox="0 0 56 56" fill="none" xmlns="http://www.w3.org/2000/svg">
<path d="M29.0757 54.5001H20.7639V39.9916M45.6993 54.5001H54.1089V39.9916M23.893 50.9468H26.9244M23.893 47.1963H26.9244M48.2417 50.9468H51.1753M54.1089 39.9916V33.1817H50.6375M54.1089 39.9916H50.6375M20.7639 39.9916V33.1817H24.5775M20.7639 39.9916H30.738V33.1817M30.738 33.1817H29.5646M30.738 33.1817H38.9521M47.1661 39.9916H44.3303M47.1661 39.9916V33.1817M47.1661 39.9916H50.6375M47.1661 33.1817H50.6375M47.1661 33.1817H38.9521M50.6375 33.1817V39.9916M50.6375 33.1817V29.3325H38.9521V33.1817M26.9244 36.8333H28.5867M23.893 36.8333H25.262M24.5775 33.1817V29.3325H29.5646V33.1817M24.5775 33.1817H29.5646M53.4244 26.5688V5.44796M53.4244 5.44796H54.5V1.50012H1.5V5.44796H3.84684M53.4244 5.44796H6.19369M49.6107 8.80358V26.5688M6.19369 5.44796V45.5182M6.19369 5.44796H3.84684M6.19369 45.5182L7.75826 47.1963V54.5001H1.5V47.1963L2.86896 45.5182M6.19369 45.5182H2.86896M3.84684 5.44796L2.86896 45.5182M10.7896 8.80358V52.8216H17.8302M40.2474 45.6076C40.2474 47.069 39.0737 48.2537 37.6257 48.2537C36.1778 48.2537 35.004 47.069 35.004 45.6076C35.004 44.1462 36.1778 42.9615 37.6257 42.9615C39.0737 42.9615 40.2474 44.1462 40.2474 45.6076ZM43.1186 45.6077C43.1186 48.6696 40.6594 51.1517 37.6257 51.1517C34.5921 51.1517 32.1328 48.6696 32.1328 45.6077C32.1328 42.5459 34.5921 40.0637 37.6257 40.0637C40.6594 40.0637 43.1186 42.5459 43.1186 45.6077ZM46.3838 45.6075C46.3838 50.4894 42.4627 54.447 37.6257 54.447C32.7888 54.447 28.8677 50.4894 28.8677 45.6075C28.8677 40.7256 32.7888 36.768 37.6257 36.768C42.4627 36.768 46.3838 40.7256 46.3838 45.6075Z" stroke="black" stroke-width="1.5"/>
</svg>
